# xmcd
#
# Track frame offsets:
#	150
#	10029
#	28283
#	39038
#	57254
#	74475
#	90731
#	108987
#	127725
#	149151
#	165977
#	180612
#	208674
#	226768
#	244537
#	258606
#	277584
#	291990
#	307192
#	324285
#
# Disc length: 4544 seconds
#
# Revision: 1
# Processed by: cddbd v1.5.2PL0 Copyright (c) Steve Scherf et al.
# Submitted via: EZCDAudioConverter 2.1.7.1
#
DISCID=1411be14
DTITLE=Jellyfish - Spilt Milk 1/2
DYEAR=2015
DGENRE=
TTITLE0=Hush
TTITLE1=Joining A Fan Club
TTITLE2=Sebrina, Paste And Plato
TTITLE3=New Mistake
TTITLE4=Glutton Of Sympathy
TTITLE5=The Ghost At Number One
TTITLE6=Bye Bye Bye
TTITLE7=All Is Forgiven
TTITLE8=Russian Hill
TTITLE9=He's My Best Friend
TTITLE10=Too Much, Too Little, Too Late
TTITLE11=Brighter Day
TTITLE12=Family Tree [Demo]
TTITLE13=Ignorance Is Bliss [Demo]
TTITLE14=Worthless Heart [Demo]
TTITLE15=Watchin' The Rain [Demo]
TTITLE16=I Need Love [Demo]
TTITLE17=I Don't Believe You [Demo]
TTITLE18=Long Time Ago [Demo]
TTITLE19=Runnin' For Our Lives [Demo]
EXTD=
EXTT0=
EXTT1=
EXTT2=
EXTT3=
EXTT4=
EXTT5=
EXTT6=
EXTT7=
EXTT8=
EXTT9=
EXTT10=
EXTT11=
EXTT12=
EXTT13=
EXTT14=
EXTT15=
EXTT16=
EXTT17=
EXTT18=
EXTT19=
PLAYORDER=
